<svg xmlns="http://www.w3.org/2000/svg" viewBox="0 0 64 64">
  <title>European goldfinch</title>
  <rect width="64" height="64" rx="15" fill="#fbf5e8"/>
  <path d="m37 39 21 15-13-1-14-10z" fill="#242829"/>
  <path d="m47 49 8 4-7-1z" fill="#fffdf7"/>
  <path d="M19 21c9-3 22 1 29 13 7 11-3 18-16 18-12 0-20-9-18-21z" fill="#bf925b"/>
  <path d="M16 32c5 8 16 14 30 11-3 6-8 9-15 9-9-1-16-8-15-20" fill="#e9d8b4"/>
  <path d="M30 26c9 0 18 7 21 17-8 3-18-1-22-9-2-4-2-6 1-8" fill="#242829"/>
  <path d="m31 29 17 7 3 7-16-8z" fill="#f3c724"/>
  <circle cx="22" cy="20" r="14" fill="#242829"/>
  <path d="M18 9c6-1 11 4 11 11s-4 13-9 13c-6-1-11-7-10-13s3-10 8-11" fill="#fffdf7"/>
  <path d="M18 12c-6 0-10 5-10 10 0 4 4 8 9 9l5-9-2-8z" fill="#cc382b"/>
  <path d="M10 15c2-8 13-11 19-5l-5 5-5-5-5 6z" fill="#242829"/>
  <path d="m10 21-7 6 10-2z" fill="#d9bea0" stroke="#6e5944" stroke-width="1.3" stroke-linejoin="round"/>
  <circle cx="15.5" cy="19" r="3" fill="#202525"/>
  <circle cx="16.1" cy="18.2" r=".8" fill="#fffdf7"/>
  <path d="m28 51-1 6m11-6 1 6m-16 1h21" fill="none" stroke="#6e5944" stroke-width="2" stroke-linecap="round"/>
</svg>
