<svg xmlns="http://www.w3.org/2000/svg" viewBox="0 0 32 32" width="64" height="64" shape-rendering="crispEdges">
  <title>European goldfinch stretching a wing</title>
  <rect x="22" y="3" width="3" height="1" fill="#242a29"/>
  <rect x="22" y="4" width="1" height="1" fill="#242a29"/>
  <rect x="23" y="4" width="1" height="1" fill="#fffdf4"/>
  <rect x="24" y="4" width="1" height="1" fill="#242a29"/>
  <rect x="9" y="5" width="5" height="1" fill="#242a29"/>
  <rect x="21" y="5" width="2" height="1" fill="#242a29"/>
  <rect x="23" y="5" width="1" height="1" fill="#fffdf4"/>
  <rect x="24" y="5" width="2" height="1" fill="#242a29"/>
  <rect x="7" y="6" width="9" height="1" fill="#242a29"/>
  <rect x="21" y="6" width="1" height="1" fill="#242a29"/>
  <rect x="22" y="6" width="2" height="1" fill="#efc52b"/>
  <rect x="24" y="6" width="2" height="1" fill="#242a29"/>
  <rect x="7" y="7" width="3" height="1" fill="#242a29"/>
  <rect x="10" y="7" width="3" height="1" fill="#fffdf4"/>
  <rect x="13" y="7" width="3" height="1" fill="#242a29"/>
  <rect x="20" y="7" width="2" height="1" fill="#242a29"/>
  <rect x="22" y="7" width="2" height="1" fill="#efc52b"/>
  <rect x="24" y="7" width="3" height="1" fill="#242a29"/>
  <rect x="6" y="8" width="1" height="1" fill="#242a29"/>
  <rect x="7" y="8" width="3" height="1" fill="#cc4136"/>
  <rect x="10" y="8" width="5" height="1" fill="#fffdf4"/>
  <rect x="15" y="8" width="2" height="1" fill="#242a29"/>
  <rect x="20" y="8" width="1" height="1" fill="#242a29"/>
  <rect x="21" y="8" width="3" height="1" fill="#efc52b"/>
  <rect x="24" y="8" width="1" height="1" fill="#242a29"/>
  <rect x="25" y="8" width="1" height="1" fill="#f3e8cb"/>
  <rect x="26" y="8" width="1" height="1" fill="#242a29"/>
  <rect x="6" y="9" width="1" height="1" fill="#242a29"/>
  <rect x="7" y="9" width="2" height="1" fill="#ec6650"/>
  <rect x="9" y="9" width="1" height="1" fill="#cc4136"/>
  <rect x="10" y="9" width="1" height="1" fill="#242a29"/>
  <rect x="11" y="9" width="4" height="1" fill="#fffdf4"/>
  <rect x="15" y="9" width="2" height="1" fill="#242a29"/>
  <rect x="19" y="9" width="2" height="1" fill="#242a29"/>
  <rect x="21" y="9" width="4" height="1" fill="#efc52b"/>
  <rect x="25" y="9" width="1" height="1" fill="#f3e8cb"/>
  <rect x="26" y="9" width="1" height="1" fill="#242a29"/>
  <rect x="5" y="10" width="2" height="1" fill="#d6b17a"/>
  <rect x="7" y="10" width="4" height="1" fill="#cc4136"/>
  <rect x="11" y="10" width="4" height="1" fill="#fffdf4"/>
  <rect x="15" y="10" width="2" height="1" fill="#242a29"/>
  <rect x="19" y="10" width="1" height="1" fill="#242a29"/>
  <rect x="20" y="10" width="5" height="1" fill="#efc52b"/>
  <rect x="25" y="10" width="3" height="1" fill="#242a29"/>
  <rect x="3" y="11" width="4" height="1" fill="#d6b17a"/>
  <rect x="7" y="11" width="3" height="1" fill="#cc4136"/>
  <rect x="10" y="11" width="5" height="1" fill="#fffdf4"/>
  <rect x="15" y="11" width="2" height="1" fill="#242a29"/>
  <rect x="17" y="11" width="1" height="1" fill="#b78757"/>
  <rect x="18" y="11" width="2" height="1" fill="#242a29"/>
  <rect x="20" y="11" width="5" height="1" fill="#efc52b"/>
  <rect x="25" y="11" width="1" height="1" fill="#242a29"/>
  <rect x="26" y="11" width="1" height="1" fill="#fffdf4"/>
  <rect x="27" y="11" width="1" height="1" fill="#242a29"/>
  <rect x="6" y="12" width="1" height="1" fill="#d6b17a"/>
  <rect x="7" y="12" width="4" height="1" fill="#cc4136"/>
  <rect x="11" y="12" width="4" height="1" fill="#fffdf4"/>
  <rect x="15" y="12" width="2" height="1" fill="#242a29"/>
  <rect x="17" y="12" width="1" height="1" fill="#b78757"/>
  <rect x="18" y="12" width="2" height="1" fill="#242a29"/>
  <rect x="20" y="12" width="6" height="1" fill="#efc52b"/>
  <rect x="26" y="12" width="1" height="1" fill="#fffdf4"/>
  <rect x="27" y="12" width="1" height="1" fill="#242a29"/>
  <rect x="6" y="13" width="5" height="1" fill="#cc4136"/>
  <rect x="11" y="13" width="3" height="1" fill="#fffdf4"/>
  <rect x="14" y="13" width="2" height="1" fill="#242a29"/>
  <rect x="16" y="13" width="2" height="1" fill="#b78757"/>
  <rect x="18" y="13" width="2" height="1" fill="#242a29"/>
  <rect x="20" y="13" width="2" height="1" fill="#efc52b"/>
  <rect x="22" y="13" width="1" height="1" fill="#242a29"/>
  <rect x="23" y="13" width="3" height="1" fill="#efc52b"/>
  <rect x="26" y="13" width="2" height="1" fill="#242a29"/>
  <rect x="7" y="14" width="1" height="1" fill="#242a29"/>
  <rect x="8" y="14" width="3" height="1" fill="#cc4136"/>
  <rect x="11" y="14" width="3" height="1" fill="#fffdf4"/>
  <rect x="14" y="14" width="3" height="1" fill="#242a29"/>
  <rect x="17" y="14" width="3" height="1" fill="#b78757"/>
  <rect x="20" y="14" width="2" height="1" fill="#efc52b"/>
  <rect x="22" y="14" width="1" height="1" fill="#242a29"/>
  <rect x="23" y="14" width="3" height="1" fill="#efc52b"/>
  <rect x="26" y="14" width="1" height="1" fill="#242a29"/>
  <rect x="9" y="15" width="4" height="1" fill="#242a29"/>
  <rect x="13" y="15" width="3" height="1" fill="#d6b17a"/>
  <rect x="16" y="15" width="1" height="1" fill="#242a29"/>
  <rect x="17" y="15" width="3" height="1" fill="#b78757"/>
  <rect x="20" y="15" width="7" height="1" fill="#242a29"/>
  <rect x="11" y="16" width="1" height="1" fill="#b78757"/>
  <rect x="12" y="16" width="3" height="1" fill="#d6b17a"/>
  <rect x="15" y="16" width="1" height="1" fill="#242a29"/>
  <rect x="16" y="16" width="3" height="1" fill="#efc52b"/>
  <rect x="19" y="16" width="8" height="1" fill="#242a29"/>
  <rect x="10" y="17" width="1" height="1" fill="#b78757"/>
  <rect x="11" y="17" width="3" height="1" fill="#f3e8cb"/>
  <rect x="14" y="17" width="1" height="1" fill="#d6b17a"/>
  <rect x="15" y="17" width="1" height="1" fill="#242a29"/>
  <rect x="16" y="17" width="5" height="1" fill="#efc52b"/>
  <rect x="21" y="17" width="4" height="1" fill="#242a29"/>
  <rect x="10" y="18" width="1" height="1" fill="#b78757"/>
  <rect x="11" y="18" width="3" height="1" fill="#f3e8cb"/>
  <rect x="14" y="18" width="1" height="1" fill="#d6b17a"/>
  <rect x="15" y="18" width="1" height="1" fill="#242a29"/>
  <rect x="16" y="18" width="5" height="1" fill="#efc52b"/>
  <rect x="21" y="18" width="4" height="1" fill="#242a29"/>
  <rect x="10" y="19" width="4" height="1" fill="#f3e8cb"/>
  <rect x="14" y="19" width="2" height="1" fill="#d6b17a"/>
  <rect x="16" y="19" width="2" height="1" fill="#242a29"/>
  <rect x="18" y="19" width="3" height="1" fill="#efc52b"/>
  <rect x="21" y="19" width="2" height="1" fill="#dca52b"/>
  <rect x="23" y="19" width="1" height="1" fill="#b78757"/>
  <rect x="10" y="20" width="6" height="1" fill="#f3e8cb"/>
  <rect x="16" y="20" width="4" height="1" fill="#242a29"/>
  <rect x="20" y="20" width="1" height="1" fill="#efc52b"/>
  <rect x="21" y="20" width="2" height="1" fill="#dca52b"/>
  <rect x="23" y="20" width="1" height="1" fill="#242a29"/>
  <rect x="10" y="21" width="6" height="1" fill="#f3e8cb"/>
  <rect x="16" y="21" width="2" height="1" fill="#d6b17a"/>
  <rect x="18" y="21" width="1" height="1" fill="#242a29"/>
  <rect x="19" y="21" width="1" height="1" fill="#fffdf4"/>
  <rect x="20" y="21" width="4" height="1" fill="#242a29"/>
  <rect x="10" y="22" width="8" height="1" fill="#f3e8cb"/>
  <rect x="18" y="22" width="4" height="1" fill="#242a29"/>
  <rect x="22" y="22" width="1" height="1" fill="#fffdf4"/>
  <rect x="23" y="22" width="3" height="1" fill="#242a29"/>
  <rect x="11" y="23" width="8" height="1" fill="#f3e8cb"/>
  <rect x="19" y="23" width="1" height="1" fill="#b78757"/>
  <rect x="20" y="23" width="8" height="1" fill="#242a29"/>
  <rect x="11" y="24" width="8" height="1" fill="#f3e8cb"/>
  <rect x="19" y="24" width="3" height="1" fill="#b78757"/>
  <rect x="22" y="24" width="4" height="1" fill="#242a29"/>
  <rect x="26" y="24" width="2" height="1" fill="#fffdf4"/>
  <rect x="28" y="24" width="2" height="1" fill="#242a29"/>
  <rect x="13" y="25" width="4" height="1" fill="#f3e8cb"/>
  <rect x="17" y="25" width="2" height="1" fill="#b78757"/>
  <rect x="19" y="25" width="1" height="1" fill="#7e674f"/>
  <rect x="23" y="25" width="7" height="1" fill="#242a29"/>
  <rect x="13" y="26" width="1" height="1" fill="#7e674f"/>
  <rect x="19" y="26" width="1" height="1" fill="#7e674f"/>
  <rect x="25" y="26" width="3" height="1" fill="#242a29"/>
  <rect x="28" y="26" width="2" height="1" fill="#f3e8cb"/>
  <rect x="13" y="27" width="1" height="1" fill="#7e674f"/>
  <rect x="19" y="27" width="1" height="1" fill="#7e674f"/>
  <rect x="11" y="28" width="5" height="1" fill="#7e674f"/>
  <rect x="18" y="28" width="4" height="1" fill="#7e674f"/>
  <rect x="25" y="28" width="3" height="1" fill="#a49172"/>
  <rect x="5" y="29" width="23" height="1" fill="#a49172"/>
</svg>
